<svg xmlns="http://www.w3.org/2000/svg" width="840.959157480648" height="845.1223859403885" style="background: rgba(0, 0, 0, 0);"><rect width="100%" height="100%" fill="rgba(0,0,0,0)"/><g transform="translate(420.4795837402344,422.5611877441406) scale(1) translate(-168.08798426601376,-25.76498842608416)"><polyline points="192.31618484543182,-72.82365403044287 188.66696924622894,-107.02137569754093" stroke="#959AA1" stroke-width="1" fill="none"/><polygon points="187.97727429237037,-113.48468142066915 185.45199499295163,-104.16411467502931 192.4124780793974,-104.906863086877" fill="#959AA1"/><text x="190.49157704583038" y="-92.92251486399189" text-anchor="middle" dominant-baseline="alphabetic" font-size="6" font-family="&quot;Open Sans&quot;, sans-serif" fill="#6f757eff" transform="rotate(83.9090555356839,190.49157704583038,-89.92251486399189)"><tspan>ACQUIRES</tspan></text><polyline points="136.96341073629424,87.19600823687401 178.19968869661076,-107.86953878149677" stroke="#959AA1" stroke-width="1" fill="none"/><polygon points="179.5440586434645,-114.22899390328169 174.25830134378282,-106.14748601373151 181.10694532108965,-104.69970299404287" fill="#959AA1"/><text x="157.5815497164525" y="-13.336765272311382" text-anchor="middle" dominant-baseline="alphabetic" font-size="6" font-family="&quot;Open Sans&quot;, sans-serif" fill="#6f757eff" transform="rotate(-78.06357919183772,157.5815497164525,-10.336765272311382)"><tspan>ACQUIRES</tspan></text><polyline points="132.66559914348917,-10.129626772219998 172.68794475988784,-109.72703461196643" stroke="#959AA1" stroke-width="1" fill="none"/><polygon points="175.11155438189803,-115.75829620470967 168.50818481686835,-108.71233918045527 175.00338960905336,-106.1022980490597" fill="#959AA1"/><text x="152.67677195168852" y="-62.92833069209321" text-anchor="middle" dominant-baseline="alphabetic" font-size="6" font-family="&quot;Open Sans&quot;, sans-serif" fill="#6f757eff" transform="rotate(-68.10770421101638,152.67677195168852,-59.92833069209321)"><tspan>ACQUIRES</tspan></text><polyline points="199.35648359580622,24.11445836430069 188.00140155134028,-106.9770410227582" stroke="#959AA1" stroke-width="1" fill="none"/><polygon points="187.44047507304452,-113.45279283130883 184.73019922300367,-104.1843299157718 191.7040857860582,-104.78840458470566" fill="#959AA1"/><text x="193.67894257357324" y="-44.431291329228756" text-anchor="middle" dominant-baseline="alphabetic" font-size="6" font-family="&quot;Open Sans&quot;, sans-serif" fill="#6f757eff" transform="rotate(85.04942400687374,193.67894257357324,-41.431291329228756)"><tspan>ACQUIRES</tspan></text><polyline points="264.5978906979397,-28.5504295758561 204.7313377316129,-112.57486932406243" stroke="#959AA1" stroke-width="1" fill="none"/><polygon points="200.95958755485657,-117.86862985927162 203.3315244344835,-108.50786517688238 209.03249731855496,-112.56974998262001" fill="#959AA1"/><text x="234.6646142147763" y="-73.56264944995927" text-anchor="middle" dominant-baseline="alphabetic" font-size="6" font-family="&quot;Open Sans&quot;, sans-serif" fill="#6f757eff" transform="rotate(54.53051696204504,234.6646142147763,-70.56264944995927)"><tspan>ACQUIRES</tspan></text><polyline points="281.22930707430976,62.43553694333397 199.5601074467369,-109.74216153416154" stroke="#959AA1" stroke-width="1" fill="none"/><polygon points="196.77444477845808,-115.61498738706726 197.46922532143336,-105.98341015397075 203.79380700917798,-108.98335456596332" fill="#959AA1"/><text x="240.39470726052332" y="-26.653312295413784" text-anchor="middle" dominant-baseline="alphabetic" font-size="6" font-family="&quot;Open Sans&quot;, sans-serif" fill="#6f757eff" transform="rotate(64.62357005990881,240.39470726052332,-23.653312295413784)"><tspan>ACQUIRES</tspan></text><polyline points="167.90345086204945,-38.55714282917734 69.83250434328889,-22.98172482924862" stroke="#959AA1" stroke-width="1" fill="none"/><polygon points="63.412960602404446,-21.962186620611323 72.8505417405876,-19.917177510555955 71.7525775159013,-26.83053230843151" fill="#959AA1"/><text x="118.86797760266917" y="-33.76943382921298" text-anchor="middle" dominant-baseline="alphabetic" font-size="6" font-family="&quot;Open Sans&quot;, sans-serif" fill="#6f757eff" transform="rotate(-9.024223867863068,118.86797760266917,-30.76943382921298)"><tspan>ACQUIRES</tspan></text><polyline points="114.3550944276129,92.69687179942487 55.15021152441058,9.191828154139717" stroke="#959AA1" stroke-width="1" fill="none"/><polygon points="51.39075339841038,3.8893311386901974 53.740966256860915,13.255573689466562 59.451347658114244,9.206926476850963" fill="#959AA1"/><text x="84.75265297601175" y="47.94434997678229" text-anchor="middle" dominant-baseline="alphabetic" font-size="6" font-family="&quot;Open Sans&quot;, sans-serif" fill="#6f757eff" transform="rotate(54.663447350082066,84.75265297601175,50.94434997678229)"><tspan>ACQUIRES</tspan></text><polyline points="95.62197995315289,6.933474693980314 67.13502496966416,-4.9209473145584095" stroke="#959AA1" stroke-width="1" fill="none"/><polygon points="61.13389305140273,-7.418228976610946 68.09846250481336,-0.7290756423974329 70.78784275625453,-7.1918330928328205" fill="#959AA1"/><text x="81.37850246140852" y="-1.993736310289048" text-anchor="middle" dominant-baseline="alphabetic" font-size="6" font-family="&quot;Open Sans&quot;, sans-serif" fill="#6f757eff" transform="rotate(22.59390918152155,81.37850246140852,1.006263689710952)"><tspan>ACQUIRE...</tspan></text><polyline points="175.82645023056614,42.36352584877196 66.96058132511429,-4.541000203735537" stroke="#959AA1" stroke-width="1" fill="none"/><polygon points="60.99106787770119,-7.112946781943208 67.87165372431521,-0.33743658658707076 70.64144234700039,-6.7661433761088725" fill="#959AA1"/><text x="121.39351577784021" y="15.91126282251821" text-anchor="middle" dominant-baseline="alphabetic" font-size="6" font-family="&quot;Open Sans&quot;, sans-serif" fill="#6f757eff" transform="rotate(23.30864576699632,121.39351577784021,18.91126282251821)"><tspan>ACQUIRES</tspan></text><polyline points="253.22824936186944,-6.070179285751189 69.98836603394138,-15.91838600467226" stroke="#959AA1" stroke-width="1" fill="none"/><polygon points="63.497733412131645,-16.267224317790816 72.29692718141973,-12.289261395575274 72.67259921093202,-19.2791734498319" fill="#959AA1"/><text x="161.60830769790542" y="-13.994282645211726" text-anchor="middle" dominant-baseline="alphabetic" font-size="6" font-family="&quot;Open Sans&quot;, sans-serif" fill="#6f757eff" transform="rotate(3.076395371846946,161.60830769790542,-10.994282645211726)"><tspan>ACQUIRES</tspan></text><polyline points="267.3882794683307,78.0287052874095 67.15447274825729,-4.9640930954236" stroke="#959AA1" stroke-width="1" fill="none"/><polygon points="61.14982041493864,-7.4528981010378965 68.12382864266446,-0.7735860676311317 70.80408018717218,-7.2401347342819955" fill="#959AA1"/><text x="167.27137610829402" y="33.53230609599295" text-anchor="middle" dominant-baseline="alphabetic" font-size="6" font-family="&quot;Open Sans&quot;, sans-serif" fill="#6f757eff" transform="rotate(22.513002087505434,167.27137610829402,36.53230609599295)"><tspan>ACQUIRES</tspan></text><polyline points="169.20013115842067,-54.234447970445444 141.8653881973628,-65.51804879427442" stroke="#959AA1" stroke-width="1" fill="none"/><polygon points="135.85715884992752,-67.99820606925068 142.84077633677373,-61.32894173220302 145.51171494059435,-67.79934256790253" fill="#959AA1"/><text x="155.53275967789173" y="-62.87624838235993" text-anchor="middle" dominant-baseline="alphabetic" font-size="6" font-family="&quot;Open Sans&quot;, sans-serif" fill="#6f757eff" transform="rotate(22.430510909201253,155.53275967789173,-59.87624838235993)"><tspan>ACQUIRE...</tspan></text><polyline points="127.893646954391,87.04260134537343 113.81694652853332,-45.80586419371768" stroke="#959AA1" stroke-width="1" fill="none"/><polygon points="113.13203698833955,-52.269678773495755 110.59985773180428,-42.95098421831408 117.56088881771912,-43.68857910775353" fill="#959AA1"/><text x="120.85529674146215" y="17.618368575827873" text-anchor="middle" dominant-baseline="alphabetic" font-size="6" font-family="&quot;Open Sans&quot;, sans-serif" fill="#6f757eff" transform="rotate(83.95147550041959,120.85529674146215,20.618368575827873)"><tspan>ACQUIRES</tspan></text><polyline points="118.35179026698137,-11.525347146396053 114.25734175053549,-45.84219844063708" stroke="#959AA1" stroke-width="1" fill="none"/><polygon points="113.48726872315187,-52.29642089826094 111.07817313003942,-42.9451504806521 118.02887423824974,-43.77445989475754" fill="#959AA1"/><text x="116.30456600875843" y="-31.683772793516564" text-anchor="middle" dominant-baseline="alphabetic" font-size="6" font-family="&quot;Open Sans&quot;, sans-serif" fill="#6f757eff" transform="rotate(83.19602981148456,116.30456600875843,-28.683772793516564)"><tspan>ACQUIRES</tspan></text><polyline points="185.51546542543656,29.65351117349076 129.54060845131488,-51.12040769417287" stroke="#959AA1" stroke-width="1" fill="none"/><polygon points="125.83830932649371,-56.462970860888674 128.08780487109144,-47.07203002437847 133.84133443524692,-51.0591213895705" fill="#959AA1"/><text x="157.52803693837572" y="-13.733448260341055" text-anchor="middle" dominant-baseline="alphabetic" font-size="6" font-family="&quot;Open Sans&quot;, sans-serif" fill="#6f757eff" transform="rotate(55.27874458630795,157.52803693837572,-10.733448260341055)"><tspan>ACQUIRES</tspan></text><polyline points="255.21410888099712,-16.076213034772696 141.6478603705928,-65.04264653454084" stroke="#959AA1" stroke-width="1" fill="none"/><polygon points="135.67904929121087,-67.61622270373566 142.55778515617325,-60.8388343497987 145.32932872299844,-67.26678474297924" fill="#959AA1"/><text x="198.43098462579496" y="-43.559429784656764" text-anchor="middle" dominant-baseline="alphabetic" font-size="6" font-family="&quot;Open Sans&quot;, sans-serif" fill="#6f757eff" transform="rotate(23.324287607709802,198.43098462579496,-40.559429784656764)"><tspan>ACQUIRES</tspan></text><polyline points="272.4759177511249,69.38749204674984 135.34012503221783,-55.89170217172251" stroke="#959AA1" stroke-width="1" fill="none"/><polygon points="130.54115880622814,-60.27575545171469 134.82523719914116,-51.6214690961926 139.54652534682504,-56.789586570335345" fill="#959AA1"/><text x="203.90802139167135" y="3.747894937513667" text-anchor="middle" dominant-baseline="alphabetic" font-size="6" font-family="&quot;Open Sans&quot;, sans-serif" fill="#6f757eff" transform="rotate(42.4129856396928,203.90802139167135,6.747894937513667)"><tspan>ACQUIRES</tspan></text><polyline points="169.25568274192955,-54.382151534273916 52.464460551502654,-103.3378499530966" stroke="#959AA1" stroke-width="1" fill="none"/><polygon points="46.46980786280412,-105.85064503862971 53.41705269340734,-99.14350039551542 56.12313970859685,-105.59928021411383" fill="#959AA1"/><text x="110.86007164671611" y="-81.86000074368525" text-anchor="middle" dominant-baseline="alphabetic" font-size="6" font-family="&quot;Open Sans&quot;, sans-serif" fill="#6f757eff" transform="rotate(22.742103438893295,110.86007164671611,-78.86000074368525)"><tspan>ACQUIRES</tspan></text><polyline points="118.65939343358617,89.9780412176719 35.35242306140766,-86.48977210520208" stroke="#959AA1" stroke-width="1" fill="none"/><polygon points="32.57756441451359,-92.36771047590291 33.254632649066465,-82.73487192198955 39.584720125205834,-85.72318123402933" fill="#959AA1"/><text x="77.00590824749692" y="-1.2558654437650887" text-anchor="middle" dominant-baseline="alphabetic" font-size="6" font-family="&quot;Open Sans&quot;, sans-serif" fill="#6f757eff" transform="rotate(64.72892910565331,77.00590824749692,1.7441345562349113)"><tspan>ACQUIRES</tspan></text><polyline points="104.57475670270199,-5.443465691459671 41.26243898543707,-89.81553367187556" stroke="#959AA1" stroke-width="1" fill="none"/><polygon points="37.36112717382097,-95.01454955457342 39.963473437682886,-85.71520581842924 45.56241361904981,-89.91661853863121" fill="#959AA1"/><text x="72.91859784406952" y="-50.62949968166761" text-anchor="middle" dominant-baseline="alphabetic" font-size="6" font-family="&quot;Open Sans&quot;, sans-serif" fill="#6f757eff" transform="rotate(53.11564689614566,72.91859784406952,-47.62949968166761)"><tspan>ACQUIRES</tspan></text><polyline points="181.0449976068687,33.78078735724901 45.67375214030002,-93.53164784634791" stroke="#959AA1" stroke-width="1" fill="none"/><polygon points="40.93878023757566,-97.98474127456284 45.09707564153981,-89.26931934941368 49.892714718078956,-94.3685198600399" fill="#959AA1"/><text x="113.35937487358436" y="-32.87543024454945" text-anchor="middle" dominant-baseline="alphabetic" font-size="6" font-family="&quot;Open Sans&quot;, sans-serif" fill="#6f757eff" transform="rotate(43.24278753555576,113.35937487358436,-29.87543024454945)"><tspan>ACQUIRES</tspan></text><polyline points="255.19603800749786,-16.029864214047667 52.34619503893813,-103.08065011099501" stroke="#959AA1" stroke-width="1" fill="none"/><polygon points="46.3729806020867,-105.64398959131938 53.263325486783245,-98.87840407564256 56.02384492713257,-105.31109654609794" fill="#959AA1"/><text x="153.77111652321798" y="-62.555257162521336" text-anchor="middle" dominant-baseline="alphabetic" font-size="6" font-family="&quot;Open Sans&quot;, sans-serif" fill="#6f757eff" transform="rotate(23.226059895164315,153.77111652321798,-59.555257162521336)"><tspan>ACQUIRES</tspan></text><polyline points="270.7987746492445,71.55501206467649 48.10817798734345,-96.25144521683507" stroke="#959AA1" stroke-width="1" fill="none"/><polygon points="42.91701419030747,-100.16319909870735 47.998450434426054,-91.95168244848018 52.211108461057755,-97.54216653759586" fill="#959AA1"/><text x="159.45347631829395" y="-15.348216576079288" text-anchor="middle" dominant-baseline="alphabetic" font-size="6" font-family="&quot;Open Sans&quot;, sans-serif" fill="#6f757eff" transform="rotate(36.99951691662261,159.45347631829395,-12.348216576079288)"><tspan>ACQUIRES</tspan></text><polyline points="167.37376964897157,-44.53542341261395 -18.982640245153018,-53.80502215950232" stroke="#959AA1" stroke-width="1" fill="none"/><polygon points="-25.47461401557765,-54.12794097920565 -16.659606620983798,-50.18514442938777 -16.311847892072517,-57.17650079753738" fill="#959AA1"/><text x="74.19556470190928" y="-52.17022278605813" text-anchor="middle" dominant-baseline="alphabetic" font-size="6" font-family="&quot;Open Sans&quot;, sans-serif" fill="#6f757eff" transform="rotate(2.8476161018282458,74.19556470190928,-49.17022278605813)"><tspan>ACQUIRES</tspan></text><polyline points="110.0718160957103,96.70709643733483 -28.597061828694557,-32.86572629890531" stroke="#959AA1" stroke-width="1" fill="none"/><polygon points="-33.34638269306774,-37.30351305890511 -29.15997744393553,-28.60155861808905 -24.38082247162805,-33.71621185664479" fill="#959AA1"/><text x="40.73737713350788" y="28.92068506921476" text-anchor="middle" dominant-baseline="alphabetic" font-size="6" font-family="&quot;Open Sans&quot;, sans-serif" fill="#6f757eff" transform="rotate(43.05784876421358,40.73737713350788,31.92068506921476)"><tspan>ACQUIRES</tspan></text><polyline points="95.65813295788264,6.837898745757694 -21.895645828613155,-42.566726220926306" stroke="#959AA1" stroke-width="1" fill="none"/><polygon points="-27.8879462919399,-45.085125545341334 -20.94697605586481,-38.37148776974458 -18.234853706494775,-44.824734422558" fill="#959AA1"/><text x="36.881243564634744" y="-20.864413737584307" text-anchor="middle" dominant-baseline="alphabetic" font-size="6" font-family="&quot;Open Sans&quot;, sans-serif" fill="#6f757eff" transform="rotate(22.79567822271851,36.881243564634744,-17.864413737584307)"><tspan>ACQUIRES</tspan></text><polyline points="175.80610103270553,42.4157771679199 -21.993991383110046,-42.352972667492075" stroke="#959AA1" stroke-width="1" fill="none"/><polygon points="-27.968463806023372,-44.91337874228728 -21.074797568417726,-38.1511774879252 -18.317437180176736,-44.5852247126011" fill="#959AA1"/><text x="76.90605482479774" y="-2.9685977497860883" text-anchor="middle" dominant-baseline="alphabetic" font-size="6" font-family="&quot;Open Sans&quot;, sans-serif" fill="#6f757eff" transform="rotate(23.197925285508518,76.90605482479774,0.03140225021391174)"><tspan>ACQUIRES</tspan></text><polyline points="253.42006548788353,-8.889398216042197 -19.423894723463906,-50.436413641423655" stroke="#959AA1" stroke-width="1" fill="none"/><polygon points="-25.849821569976065,-51.41491461907993 -17.47926953969722,-46.59995265574162 -16.42549925606739,-53.5201815673701" fill="#959AA1"/><text x="116.99808538220981" y="-32.662905928732926" text-anchor="middle" dominant-baseline="alphabetic" font-size="6" font-family="&quot;Open Sans&quot;, sans-serif" fill="#6f757eff" transform="rotate(8.658141189432303,116.99808538220981,-29.662905928732926)"><tspan>ACQUIRES</tspan></text><polyline points="267.4101592863342,77.97049332339536 -21.85697313703792,-42.65187873873206" stroke="#959AA1" stroke-width="1" fill="none"/><polygon points="-27.856277817791568,-45.15354685170934 -20.8966003206589,-38.45930386718113 -18.202496198991053,-44.92009352337737" fill="#959AA1"/><text x="122.77659307464813" y="14.65930729233165" text-anchor="middle" dominant-baseline="alphabetic" font-size="6" font-family="&quot;Open Sans&quot;, sans-serif" fill="#6f757eff" transform="rotate(22.63579517654564,122.77659307464813,17.65930729233165)"><tspan>ACQUIRES</tspan></text><polyline points="174.4656261914934,-25.082284941124627 74.07930465134217,56.08579309951049" stroke="#959AA1" stroke-width="1" fill="none"/><polygon points="69.02482441797298,60.17262923159116 78.2239395814507,57.23557625129364 73.82273143920996,51.79228984612682" fill="#959AA1"/><text x="124.27246542141779" y="12.501754079192931" text-anchor="middle" dominant-baseline="alphabetic" font-size="6" font-family="&quot;Open Sans&quot;, sans-serif" fill="#6f757eff" transform="rotate(-38.95751930235262,124.27246542141779,15.501754079192931)"><tspan>ACQUIRES</tspan></text><polyline points="105.23624666347476,104.43096625826628 77.3419467469481,91.42974376864521" stroke="#959AA1" stroke-width="1" fill="none"/><polygon points="71.45045249562425,88.68378392068347 78.12931231009324,95.65822523011256 81.08649983866744,89.31353911330227" fill="#959AA1"/><text x="91.28909670521142" y="94.93035501345574" text-anchor="middle" dominant-baseline="alphabetic" font-size="6" font-family="&quot;Open Sans&quot;, sans-serif" fill="#6f757eff" transform="rotate(24.989702040398058,91.28909670521142,97.93035501345574)"><tspan>ACQUIRE...</tspan></text><polyline points="100.59383435113784,35.853645778028245 74.36132472989162,56.46215090102116" stroke="#959AA1" stroke-width="1" fill="none"/><polygon points="69.24999499924759,60.47765938496618 78.48941765610972,57.66997903138909 74.16502390416893,52.16547009069552" fill="#959AA1"/><text x="87.47757954051474" y="43.157898339524706" text-anchor="middle" dominant-baseline="alphabetic" font-size="6" font-family="&quot;Open Sans&quot;, sans-serif" fill="#6f757eff" transform="rotate(-38.15350936060515,87.47757954051474,46.157898339524706)"><tspan>ACQUIRES</tspan></text><polyline points="174.3289676858046,58.23463831076596 80.67491592982765,72.36281648170745" stroke="#959AA1" stroke-width="1" fill="none"/><polygon points="74.24763800415978,73.33240323193793 83.6690310744394,75.45074046082459 82.62486072803733,68.52905654087456" fill="#959AA1"/><text x="127.50194180781612" y="62.2987273962367" text-anchor="middle" dominant-baseline="alphabetic" font-size="6" font-family="&quot;Open Sans&quot;, sans-serif" fill="#6f757eff" transform="rotate(-8.57866723157028,127.50194180781612,65.2987273962367)"><tspan>ACQUIRES</tspan></text><polyline points="255.1862049448427,4.979779733816502 79.36205361594892,66.28586361769628" stroke="#959AA1" stroke-width="1" fill="none"/><polygon points="73.22444937153026,68.42591364956327 82.8750052655768,68.76763127551132 80.57033600048926,62.157903627675836" fill="#959AA1"/><text x="167.2741292803958" y="32.63282167575639" text-anchor="middle" dominant-baseline="alphabetic" font-size="6" font-family="&quot;Open Sans&quot;, sans-serif" fill="#6f757eff" transform="rotate(-19.222560031748102,167.2741292803958,35.63282167575639)"><tspan>ACQUIRES</tspan></text><polyline points="265.54652452230215,87.82030821442373 80.81435013146634,78.97259892110849" stroke="#959AA1" stroke-width="1" fill="none"/><polygon points="74.3217925411976,78.66163921786118 83.144047825975,82.5881913555791 83.47892750639518,75.59620625836659" fill="#959AA1"/><text x="173.18043732688426" y="80.39645356776612" text-anchor="middle" dominant-baseline="alphabetic" font-size="6" font-family="&quot;Open Sans&quot;, sans-serif" fill="#6f757eff" transform="rotate(2.7420741016051986,173.18043732688426,83.39645356776612)"><tspan>ACQUIRES</tspan></text><polyline points="169.3114352321012,-33.658957688159084 -11.137940406197188,28.829093602342923" stroke="#959AA1" stroke-width="1" fill="none"/><polygon points="-17.28008883789145,30.956066249801218 -7.630282660760318,31.31833789346357 -9.920868588792326,24.703716505485133" fill="#959AA1"/><text x="79.08674741295201" y="-5.414932042908081" text-anchor="middle" dominant-baseline="alphabetic" font-size="6" font-family="&quot;Open Sans&quot;, sans-serif" fill="#6f757eff" transform="rotate(-19.100525220430256,79.08674741295201,-2.414932042908081)"><tspan>ACQUIRES</tspan></text><polyline points="104.99186238174258,105.02444252941132 -12.853722380701562,53.238967621243724" stroke="#959AA1" stroke-width="1" fill="none"/><polygon points="-18.80450883258236,50.623983758174596 -11.97302659470771,57.449000273436894 -9.15689012678711,51.04046101756526" fill="#959AA1"/><text x="46.06907000052051" y="76.13170507532752" text-anchor="middle" dominant-baseline="alphabetic" font-size="6" font-family="&quot;Open Sans&quot;, sans-serif" fill="#6f757eff" transform="rotate(23.72236758455695,46.06907000052051,79.13170507532752)"><tspan>ACQUIRES</tspan></text><polyline points="94.15493246583428,21.90370864412336 -9.77399285803068,35.49410641611868" stroke="#959AA1" stroke-width="1" fill="none"/><polygon points="-16.21912118013473,36.33691179793122 -6.841279067014675,38.64040421193912 -7.748915632043563,31.699496788134756" fill="#959AA1"/><text x="42.1904698039018" y="25.69890753012102" text-anchor="middle" dominant-baseline="alphabetic" font-size="6" font-family="&quot;Open Sans&quot;, sans-serif" fill="#6f757eff" transform="rotate(-7.450082206529626,42.1904698039018,28.69890753012102)"><tspan>ACQUIRES</tspan></text><polyline points="173.84557748955112,52.2617942272639 -9.732676929558956,41.75820633649432" stroke="#959AA1" stroke-width="1" fill="none"/><polygon points="-16.222063602793355,41.38691049050652 -7.436687510769924,45.39529756284661 -7.036830445859992,38.40672729936341" fill="#959AA1"/><text x="82.05645027999608" y="44.01000028187911" text-anchor="middle" dominant-baseline="alphabetic" font-size="6" font-family="&quot;Open Sans&quot;, sans-serif" fill="#6f757eff" transform="rotate(3.2746571060588336,82.05645027999608,47.01000028187911)"><tspan>ACQUIRES</tspan></text><polyline points="253.6410320707971,-0.6040276936754297 -9.792837485957985,35.311658867618746" stroke="#959AA1" stroke-width="1" fill="none"/><polygon points="-16.23325685921145,36.189723954398424 -6.842948834132978,38.441859650609196 -7.788557389126476,31.50602340249008" fill="#959AA1"/><text x="121.92409729241956" y="14.35381558697166" text-anchor="middle" dominant-baseline="alphabetic" font-size="6" font-family="&quot;Open Sans&quot;, sans-serif" fill="#6f757eff" transform="rotate(-7.763647029220036,121.92409729241956,17.35381558697166)"><tspan>ACQUIRES</tspan></text><polyline points="265.72148482325923,85.00363751983005 -10.117789427131765,44.68127478538321" stroke="#959AA1" stroke-width="1" fill="none"/><polygon points="-16.549434456539142,43.74109277337736 -8.150331653055156,48.50607672891251 -7.137827947818084,41.579689774166106" fill="#959AA1"/><text x="127.80184769806374" y="61.84245615260663" text-anchor="middle" dominant-baseline="alphabetic" font-size="6" font-family="&quot;Open Sans&quot;, sans-serif" fill="#6f757eff" transform="rotate(8.316629039529172,127.80184769806374,64.84245615260663)"><tspan>ACQUIRES</tspan></text><polyline points="174.19664505275554,-25.396957159907245 -5.144507630376751,115.42734173692907" stroke="#959AA1" stroke-width="1" fill="none"/><polygon points="-10.256775957843333,119.44165519603786 -1.0166971802925588,116.63613489052307 -5.339803982409725,111.13061515325137" fill="#959AA1"/><text x="84.5260687111894" y="42.01519228851091" text-anchor="middle" dominant-baseline="alphabetic" font-size="6" font-family="&quot;Open Sans&quot;, sans-serif" fill="#6f757eff" transform="rotate(-38.14011488268694,84.5260687111894,45.01519228851091)"><tspan>ACQUIRES</tspan></text><polyline points="103.26602104575875,120.20108582315282 1.272953055879515,132.35803510664005" stroke="#959AA1" stroke-width="1" fill="none"/><polygon points="-5.181359848783081,133.1273496903481 4.169627410438692,135.53754413849373 3.3411347818300277,128.58674562578017" fill="#959AA1"/><text x="52.26948705081913" y="123.27956046489643" text-anchor="middle" dominant-baseline="alphabetic" font-size="6" font-family="&quot;Open Sans&quot;, sans-serif" fill="#6f757eff" transform="rotate(-6.797237337678479,52.26948705081913,126.27956046489643)"><tspan>ACQUIRES</tspan></text><polyline points="100.33146111719415,35.53787499812483 -4.870185451676248,115.80447526233296" stroke="#959AA1" stroke-width="1" fill="none"/><polygon points="-10.037815472734783,119.74726614766463 -0.7595941976289846,117.07058724085229 -5.005676689524639,111.50544721817386" fill="#959AA1"/><text x="47.73063783275895" y="72.67117513022889" text-anchor="middle" dominant-baseline="alphabetic" font-size="6" font-family="&quot;Open Sans&quot;, sans-serif" fill="#6f757eff" transform="rotate(-37.34285495710407,47.73063783275895,75.67117513022889)"><tspan>ACQUIRES</tspan></text><polyline points="175.82068010893818,63.46164380186085 -0.16694652401588517,125.18626349792281" stroke="#959AA1" stroke-width="1" fill="none"/><polygon points="-6.300623195445555,127.3375446256138 3.350542033752217,127.66159665650378 1.0337777423926822,121.05609870265644" fill="#959AA1"/><text x="87.82686679246115" y="91.32395364989183" text-anchor="middle" dominant-baseline="alphabetic" font-size="6" font-family="&quot;Open Sans&quot;, sans-serif" fill="#6f757eff" transform="rotate(-19.32743811493433,87.82686679246115,94.32395364989183)"><tspan>ACQUIRES</tspan></text><polyline points="256.18393359957383,7.2576975976137685 -1.1293417707586233,122.54513430115333" stroke="#959AA1" stroke-width="1" fill="none"/><polygon points="-7.061167647835093,125.20284793584875 2.5832062929529402,124.71699683700396 -0.278946852103672,118.32887666169083" fill="#959AA1"/><text x="127.5272959144076" y="61.90141594938355" text-anchor="middle" dominant-baseline="alphabetic" font-size="6" font-family="&quot;Open Sans&quot;, sans-serif" fill="#6f757eff" transform="rotate(-24.13443606802051,127.5272959144076,64.90141594938355)"><tspan>ACQUIRES</tspan></text><polyline points="266.00100330016795,93.33886608393529 1.1896578395984414,131.53699073491993" stroke="#959AA1" stroke-width="1" fill="none"/><polygon points="-5.243756492385424,132.46498859753845 4.1637391240791475,134.64421465882714 3.1643568104899407,127.71592230130607" fill="#959AA1"/><text x="133.5953305698832" y="109.4379284094276" text-anchor="middle" dominant-baseline="alphabetic" font-size="6" font-family="&quot;Open Sans&quot;, sans-serif" fill="#6f757eff" transform="rotate(-8.208102509099819,133.5953305698832,112.4379284094276)"><tspan>ACQUIRES</tspan></text><polyline points="181.4904658172288,-19.192184804299032 74.08107987263483,147.06086943855863" stroke="#959AA1" stroke-width="1" fill="none"/><polygon points="70.55379277294944,152.5205622610893 78.3775633538765,146.86029602203126 72.49789416038192,143.061679145447" fill="#959AA1"/><text x="127.78577284493181" y="60.9343423171298" text-anchor="middle" dominant-baseline="alphabetic" font-size="6" font-family="&quot;Open Sans&quot;, sans-serif" fill="#6f757eff" transform="rotate(-57.13512962215749,127.78577284493181,63.9343423171298)"><tspan>ACQUIRES</tspan></text><polyline points="109.52833096736666,134.20254553431167 82.2662059184193,155.08156797349187" stroke="#959AA1" stroke-width="1" fill="none"/><polygon points="77.10575991648896,159.03375686841594 86.37909455489009,156.3401970149451 82.12289112958723,150.7827936282509" fill="#959AA1"/><text x="95.89726844289298" y="141.64205675390178" text-anchor="middle" dominant-baseline="alphabetic" font-size="6" font-family="&quot;Open Sans&quot;, sans-serif" fill="#6f757eff" transform="rotate(-37.44712726022265,95.89726844289298,144.64205675390178)"><tspan>ACQUIRES</tspan></text><polyline points="112.2445666703891,44.18886090515743 69.21273276334205,144.27558544501653" stroke="#959AA1" stroke-width="1" fill="none"/><polygon points="66.64532719404306,150.24705332508861 73.41560222541894,143.36131618230365 66.98479066226439,140.59641787690475" fill="#959AA1"/><text x="90.72864971686558" y="91.23222317508699" text-anchor="middle" dominant-baseline="alphabetic" font-size="6" font-family="&quot;Open Sans&quot;, sans-serif" fill="#6f757eff" transform="rotate(-66.7349319969279,90.72864971686558,94.23222317508699)"><tspan>ACQUIRES</tspan></text><polyline points="181.10697632823468,72.12956708363652 81.55537435664364,154.1297464373529" stroke="#959AA1" stroke-width="1" fill="none"/><polygon points="76.53823608902138,158.26233928005593 85.71028522103074,155.24182364195602 81.25980062119672,149.83875166143972" fill="#959AA1"/><text x="131.33117534243917" y="110.12965676049471" text-anchor="middle" dominant-baseline="alphabetic" font-size="6" font-family="&quot;Open Sans&quot;, sans-serif" fill="#6f757eff" transform="rotate(-39.47812050779079,131.33117534243917,113.12965676049471)"><tspan>ACQUIRES</tspan></text><polyline points="260.13974451180775,13.291160468806961 81.93096273798022,154.62388940229562" stroke="#959AA1" stroke-width="1" fill="none"/><polygon points="76.83815449545642,158.66286256448444 86.06456684166798,155.81271954742812 81.71490343623387,150.32815682471016" fill="#959AA1"/><text x="171.035353624894" y="80.95752493555129" text-anchor="middle" dominant-baseline="alphabetic" font-size="6" font-family="&quot;Open Sans&quot;, sans-serif" fill="#6f757eff" transform="rotate(-38.41701513930976,171.035353624894,83.95752493555129)"><tspan>ACQUIRES</tspan></text><polyline points="267.6232276549544,98.9952759622564 86.91169624613812,164.2235594814575" stroke="#959AA1" stroke-width="1" fill="none"/><polygon points="80.79778622136108,166.43039074118963 90.45149385706196,166.66688362567123 88.0749063465812,160.08267282975748" fill="#959AA1"/><text x="177.26746195054625" y="128.60941772185694" text-anchor="middle" dominant-baseline="alphabetic" font-size="6" font-family="&quot;Open Sans&quot;, sans-serif" fill="#6f757eff" transform="rotate(-19.847175818614073,177.26746195054625,131.60941772185694)"><tspan>ACQUIRES</tspan></text><polyline points="191.55198736160975,-15.481999562968372 151.37458326718777,180.80539281198747" stroke="#959AA1" stroke-width="1" fill="none"/><polygon points="150.0711448694586,187.17336331626316 155.30481292246282,179.0580248321971 148.44699853324283,177.65432194233497" fill="#959AA1"/><text x="171.46328531439877" y="79.66169662450955" text-anchor="middle" dominant-baseline="alphabetic" font-size="6" font-family="&quot;Open Sans&quot;, sans-serif" fill="#6f757eff" transform="rotate(-78.43210571046762,171.46328531439877,82.66169662450955)"><tspan>ACQUIRES</tspan></text><polyline points="136.39640824784453,144.4493742614591 140.67345975950607,180.04435472400957" stroke="#959AA1" stroke-width="1" fill="none"/><polygon points="141.44891420964655,186.49793283198636 143.8502116445165,177.14465690163516 136.90020445131069,177.97976169409415" fill="#959AA1"/><text x="138.5349340036753" y="159.24686449273435" text-anchor="middle" dominant-baseline="alphabetic" font-size="6" font-family="&quot;Open Sans&quot;, sans-serif" fill="#6f757eff" transform="rotate(83.14825516663909,138.5349340036753,162.24686449273435)"><tspan>ACQUIRES</tspan></text><polyline points="126.84505501666408,45.88309304547788 141.12492457826164,180.00680366335283" stroke="#959AA1" stroke-width="1" fill="none"/><polygon points="141.81307666259775,186.4702738387945 144.34058079413944,177.15031016584814 137.37992060520224,177.89139702590242" fill="#959AA1"/><text x="133.98498979746284" y="109.94494835441535" text-anchor="middle" dominant-baseline="alphabetic" font-size="6" font-family="&quot;Open Sans&quot;, sans-serif" fill="#6f757eff" transform="rotate(83.92273255959913,133.98498979746284,112.94494835441535)"><tspan>ACQUIRES</tspan></text><polyline points="193.76143936775728,80.47539142006296 156.20431447614732,182.33870379506106" stroke="#959AA1" stroke-width="1" fill="none"/><polygon points="153.95572540658117,188.43737965103404 160.3530588099659,181.20383796483785 153.78525404199502,178.78228050530507" fill="#959AA1"/><text x="174.9828769219523" y="128.40704760756202" text-anchor="middle" dominant-baseline="alphabetic" font-size="6" font-family="&quot;Open Sans&quot;, sans-serif" fill="#6f757eff" transform="rotate(-69.76100921857775,174.9828769219523,131.40704760756202)"><tspan>ACQUIRES</tspan></text><polyline points="267.5763525319134,19.527062480932084 162.4374541057918,185.65208138523897" stroke="#959AA1" stroke-width="1" fill="none"/><polygon points="158.96135280948073,191.14450523794594 166.731875140446,185.4113575245192 160.8169571452231,181.66786382079954" fill="#959AA1"/><text x="215.0069033188526" y="99.58957193308552" text-anchor="middle" dominant-baseline="alphabetic" font-size="6" font-family="&quot;Open Sans&quot;, sans-serif" fill="#6f757eff" transform="rotate(-57.67068073776863,215.0069033188526,102.58957193308552)"><tspan>ACQUIRES</tspan></text><polyline points="272.8835021422395,107.49816528799562 170.09493155777776,192.80033775648963" stroke="#959AA1" stroke-width="1" fill="none"/><polygon points="165.093008421642,196.95133341297853 174.2538996559394,193.8971441926824 169.783596641259,188.51045773838234" fill="#959AA1"/><text x="221.48921685000863" y="147.14925152224262" text-anchor="middle" dominant-baseline="alphabetic" font-size="6" font-family="&quot;Open Sans&quot;, sans-serif" fill="#6f757eff" transform="rotate(-39.6885997798179,221.48921685000863,150.14925152224262)"><tspan>ACQUIRES</tspan></text><polyline points="200.93949604267368,-15.435480088677583 217.46414153476496,118.17949579033963" stroke="#959AA1" stroke-width="1" fill="none"/><polygon points="218.26194186601165,124.6303495812314 220.63083191015025,115.26881338470997 213.6837585968822,116.12798297220641" fill="#959AA1"/><text x="209.20181878871932" y="48.372007850831025" text-anchor="middle" dominant-baseline="alphabetic" font-size="6" font-family="&quot;Open Sans&quot;, sans-serif" fill="#6f757eff" transform="rotate(82.94982358790696,209.20181878871932,51.372007850831025)"><tspan>ACQUIRES</tspan></text><polyline points="159.21058083028555,125.70172933426497 189.89221922497006,138.08421786602568" stroke="#959AA1" stroke-width="1" fill="none"/><polygon points="195.91984852524936,140.51684710584308 188.88377754630278,133.90294468902246 186.2640229803456,140.39423778163095" fill="#959AA1"/><text x="174.5514000276278" y="128.89297360014533" text-anchor="middle" dominant-baseline="alphabetic" font-size="6" font-family="&quot;Open Sans&quot;, sans-serif" fill="#6f757eff" transform="rotate(21.97800614848296,174.5514000276278,131.89297360014533)"><tspan>ACQUIRES</tspan></text><polyline points="140.6528155777113,40.01192507190323 201.68038555959725,123.87360251540387" stroke="#959AA1" stroke-width="1" fill="none"/><polygon points="205.50502868619657,129.1292761120189 203.03934706292867,119.79276637161382 197.37939088195864,123.91161281564388" fill="#959AA1"/><text x="171.16660056865427" y="78.94276379365355" text-anchor="middle" dominant-baseline="alphabetic" font-size="6" font-family="&quot;Open Sans&quot;, sans-serif" fill="#6f757eff" transform="rotate(53.955980477869026,171.16660056865427,81.94276379365355)"><tspan>ACQUIRES</tspan></text><polyline points="208.9699707771711,81.28565048917048 215.6411781674922,118.40042767924278" stroke="#959AA1" stroke-width="1" fill="none"/><polygon points="216.79109442657844,124.79790316548649 218.64369717582105,115.32067450656416 211.75410819063552,116.55904586250318" fill="#959AA1"/><text x="212.30557447233167" y="96.84303908420662" text-anchor="middle" dominant-baseline="alphabetic" font-size="6" font-family="&quot;Open Sans&quot;, sans-serif" fill="#6f757eff" transform="rotate(79.8101612166565,212.30557447233167,99.84303908420662)"><tspan>ACQUIRES</tspan></text><polyline points="272.57389602937394,21.847515777304665 233.75573217689296,120.73107753419069" stroke="#959AA1" stroke-width="1" fill="none"/><polygon points="231.3805263708965,126.78156490126786 237.9272276076255,119.68292398085141 231.41131813538854,117.1250100359321" fill="#959AA1"/><text x="253.16481410313344" y="68.28929665574768" text-anchor="middle" dominant-baseline="alphabetic" font-size="6" font-family="&quot;Open Sans&quot;, sans-serif" fill="#6f757eff" transform="rotate(-68.56679660585097,253.16481410313344,71.28929665574768)"><tspan>ACQUIRES</tspan></text><polyline points="273.18289987235755,107.82946423758057 246.6807016960186,130.52079281757474" stroke="#959AA1" stroke-width="1" fill="none"/><polygon points="241.7432477154113,134.7482682095061 250.8560553611383,131.5534698102359 246.303389554443,126.23621167727417" fill="#959AA1"/><text x="259.93180078418806" y="116.17512852757766" text-anchor="middle" dominant-baseline="alphabetic" font-size="6" font-family="&quot;Open Sans&quot;, sans-serif" fill="#6f757eff" transform="rotate(-40.57032094391924,259.93180078418806,119.17512852757766)"><tspan>ACQUIRES</tspan></text><polyline points="201.23344036990756,-15.483716446027485 232.14228322045605,214.99051382085722" stroke="#959AA1" stroke-width="1" fill="none"/><polygon points="233.00626174885997,221.43283802121047 235.27892758664478,212.04747761311927 228.34103998626438,212.97791602832348" fill="#959AA1"/><text x="216.6878617951818" y="96.75339868741487" text-anchor="middle" dominant-baseline="alphabetic" font-size="6" font-family="&quot;Open Sans&quot;, sans-serif" fill="#6f757eff" transform="rotate(82.3616523709464,216.6878617951818,99.75339868741487)"><tspan>ACQUIRES</tspan></text><polyline points="150.5964789991641,138.00366900010857 215.7546183906297,221.32149130555504" stroke="#959AA1" stroke-width="1" fill="none"/><polygon points="219.75882630968053,226.4416786987088 216.97156240269297,217.1960765056224 211.45751444083507,221.50830041844637" fill="#959AA1"/><text x="183.17554869489692" y="176.66258015283182" text-anchor="middle" dominant-baseline="alphabetic" font-size="6" font-family="&quot;Open Sans&quot;, sans-serif" fill="#6f757eff" transform="rotate(51.97305533228154,183.17554869489692,179.66258015283182)"><tspan>ACQUIRES</tspan></text><polyline points="136.39848869244858,42.77515863028857 221.80961285272474,217.7816934646388" stroke="#959AA1" stroke-width="1" fill="none"/><polygon points="224.66050106720826,223.6231347584052 223.85850885148994,213.999891620776 217.56772591974152,217.0700789286813" fill="#959AA1"/><text x="179.10405077258667" y="127.27842604746368" text-anchor="middle" dominant-baseline="alphabetic" font-size="6" font-family="&quot;Open Sans&quot;, sans-serif" fill="#6f757eff" transform="rotate(63.985525896015346,179.10405077258667,130.27842604746368)"><tspan>ACQUIRES</tspan></text><polyline points="208.63492742844227,81.35580837219041 231.05308728732223,215.12167150485394" stroke="#959AA1" stroke-width="1" fill="none"/><polygon points="232.1274552121151,221.53226691886783 234.091727923794,212.07755207842163 227.18800978562518,213.23456368973703" fill="#959AA1"/><text x="219.84400735788225" y="145.23873993852217" text-anchor="middle" dominant-baseline="alphabetic" font-size="6" font-family="&quot;Open Sans&quot;, sans-serif" fill="#6f757eff" transform="rotate(80.48607104545799,219.84400735788225,148.23873993852217)"><tspan>ACQUIRES</tspan></text><polyline points="277.9833827905437,23.190930019582343 242.64093351857224,215.55834460382994" stroke="#959AA1" stroke-width="1" fill="none"/><polygon points="241.4663881186395,221.9513441426612 246.53506611637857,213.73194615039708 239.65029738225257,212.4670511043157" fill="#959AA1"/><text x="260.312158154558" y="116.37463731170614" text-anchor="middle" dominant-baseline="alphabetic" font-size="6" font-family="&quot;Open Sans&quot;, sans-serif" fill="#6f757eff" transform="rotate(-79.58950575598635,260.312158154558,119.37463731170614)"><tspan>ACQUIRES</tspan></text><polyline points="285.4791123670335,115.76813721270588 248.11772767716963,217.23509200292335" stroke="#959AA1" stroke-width="1" fill="none"/><polygon points="245.87176381640566,223.33473513479115 252.26598315616152,216.09844056953938 245.6971367064577,213.67971025794742" fill="#959AA1"/><text x="266.7984200221016" y="163.50161460781462" text-anchor="middle" dominant-baseline="alphabetic" font-size="6" font-family="&quot;Open Sans&quot;, sans-serif" fill="#6f757eff" transform="rotate(-69.78567054814842,266.7984200221016,166.50161460781462)"><tspan>ACQUIRES</tspan></text><polyline points="210.16528147879413,-18.555725362949996 297.8224291263584,158.24555679633087" stroke="#959AA1" stroke-width="1" fill="none"/><polygon points="300.7097094445308,164.06909630115902 299.84768873735334,154.45104450776566 293.5761846552307,157.56042331195138" fill="#959AA1"/><text x="253.99385530257626" y="66.84491571669044" text-anchor="middle" dominant-baseline="alphabetic" font-size="6" font-family="&quot;Open Sans&quot;, sans-serif" fill="#6f757eff" transform="rotate(63.628027290535925,253.99385530257626,69.84491571669044)"><tspan>ACQUIRES</tspan></text><polyline points="159.19449564410428,125.74580475818343 281.1376867246167,175.18904808377417" stroke="#959AA1" stroke-width="1" fill="none"/><polygon points="287.1613747566648,177.63142039211704 280.13600718601356,171.00614979407794 277.50576008472126,177.49319844397593" fill="#959AA1"/><text x="220.16609118436048" y="147.4674264209788" text-anchor="middle" dominant-baseline="alphabetic" font-size="6" font-family="&quot;Open Sans&quot;, sans-serif" fill="#6f757eff" transform="rotate(22.070649395523642,220.16609118436048,150.4674264209788)"><tspan>ACQUIRES</tspan></text><polyline points="144.92721380980421,35.90084063552361 287.672157514465,165.4492491592535" stroke="#959AA1" stroke-width="1" fill="none"/><polygon points="292.4854539849907,169.81756429060852 288.17305932730017,161.17735293229546 283.4687199550717,166.36090297747697" fill="#959AA1"/><text x="216.2996856621346" y="97.67504489738855" text-anchor="middle" dominant-baseline="alphabetic" font-size="6" font-family="&quot;Open Sans&quot;, sans-serif" fill="#6f757eff" transform="rotate(42.225365155950016,216.2996856621346,100.67504489738855)"><tspan>ACQUIRES</tspan></text><polyline points="221.78445662358925,74.91290508107372 291.6216569626985,161.94897990166268" stroke="#959AA1" stroke-width="1" fill="none"/><polygon points="295.6895701662057,167.01870200141647 292.78692532275545,157.80867198448428 287.32722459994375,162.18950158826127" fill="#959AA1"/><text x="256.7030567931439" y="115.4309424913682" text-anchor="middle" dominant-baseline="alphabetic" font-size="6" font-family="&quot;Open Sans&quot;, sans-serif" fill="#6f757eff" transform="rotate(51.2566610636806,256.7030567931439,118.4309424913682)"><tspan>ACQUIRES</tspan></text><polyline points="287.5933405487925,23.00678764163302 307.7538341162557,155.43446030298693" stroke="#959AA1" stroke-width="1" fill="none"/><polygon points="308.73210814967996,161.86042170308326 310.8377079342213,152.43617374649068 303.91744181104065,153.48969962863987" fill="#959AA1"/><text x="297.6735873325241" y="86.22062397230998" text-anchor="middle" dominant-baseline="alphabetic" font-size="6" font-family="&quot;Open Sans&quot;, sans-serif" fill="#6f757eff" transform="rotate(81.3438823181534,297.6735873325241,89.22062397230998)"><tspan>ACQUIRES</tspan></text><polyline points="300.4517585392095,116.62185197136563 307.12656291300243,155.5168984657982" stroke="#959AA1" stroke-width="1" fill="none"/><polygon points="308.22596087827634,161.92324876171173 310.15329077800436,152.46093406299164 303.2541443054821,153.64490110251737" fill="#959AA1"/><text x="303.78916072610593" y="133.0693752185819" text-anchor="middle" dominant-baseline="alphabetic" font-size="6" font-family="&quot;Open Sans&quot;, sans-serif" fill="#6f757eff" transform="rotate(80.26228701922597,303.78916072610593,136.0693752185819)"><tspan>ACQUIRES</tspan></text><polyline points="218.66643760026602,-25.501669671046237 364.2687682593866,104.7740362259595" stroke="#959AA1" stroke-width="1" fill="none"/><polygon points="369.11283784941185,109.10820163662308 364.73944594588806,100.4987043656907 360.07188319594263,105.7153946934102" fill="#959AA1"/><text x="291.4676029298263" y="36.63618327745664" text-anchor="middle" dominant-baseline="alphabetic" font-size="6" font-family="&quot;Open Sans&quot;, sans-serif" fill="#6f757eff" transform="rotate(41.8201559716736,291.4676029298263,39.63618327745664)"><tspan>ACQUIRES</tspan></text><polyline points="160.95877287110565,116.14062100862917 355.1516487816265,125.28266624124059" stroke="#959AA1" stroke-width="1" fill="none"/><polygon points="361.64445789640837,125.5883291258121 352.81900221378726,121.66897560844588 352.4898267996333,128.66123157821104" fill="#959AA1"/><text x="258.0552108263661" y="117.71164362493488" text-anchor="middle" dominant-baseline="alphabetic" font-size="6" font-family="&quot;Open Sans&quot;, sans-serif" fill="#6f757eff" transform="rotate(2.695331434258093,258.0552108263661,120.71164362493488)"><tspan>ACQUIRES</tspan></text><polyline points="149.93560508881157,27.379257516618413 358.027345642667,114.05309114059725" stroke="#959AA1" stroke-width="1" fill="none"/><polygon points="364.0276635459311,116.55232803608517 357.0652740082127,109.86090577134429 354.37378812076423,116.32278659024412" fill="#959AA1"/><text x="253.9814753657393" y="67.71617432860783" text-anchor="middle" dominant-baseline="alphabetic" font-size="6" font-family="&quot;Open Sans&quot;, sans-serif" fill="#6f757eff" transform="rotate(22.61257802978326,253.9814753657393,70.71617432860783)"><tspan>ACQUIRES</tspan></text><polyline points="230.12268571689845,62.84430657081205 357.87554335605523,114.39399002305106" stroke="#959AA1" stroke-width="1" fill="none"/><polygon points="363.9033165054122,116.82626279967204 356.86685440909844,110.21277649008157 354.2474837265836,116.70422449708134" fill="#959AA1"/><text x="293.99911453647684" y="85.61914829693156" text-anchor="middle" dominant-baseline="alphabetic" font-size="6" font-family="&quot;Open Sans&quot;, sans-serif" fill="#6f757eff" transform="rotate(21.97461781917827,293.99911453647684,88.61914829693156)"><tspan>ACQUIRES</tspan></text><polyline points="301.10002482845096,16.53992195290251 368.4662983516477,101.03919708418195" stroke="#959AA1" stroke-width="1" fill="none"/><polygon points="372.51825957473034,106.12167780196482 369.6445721138836,96.90257153414403 364.1711313408867,101.26622208207918" fill="#959AA1"/><text x="334.7831615900493" y="55.789559518542234" text-anchor="middle" dominant-baseline="alphabetic" font-size="6" font-family="&quot;Open Sans&quot;, sans-serif" fill="#6f757eff" transform="rotate(51.43671664717238,334.7831615900493,58.789559518542234)"><tspan>ACQUIRES</tspan></text><polyline points="321.6704364308521,98.55710279130321 358.08919636616304,113.91705843890368" stroke="#959AA1" stroke-width="1" fill="none"/><polygon points="364.0783112580938,116.44302415744657 357.14582602540514,109.72062514380912 354.42555525158974,116.17044118127293" fill="#959AA1"/><text x="339.87981639850756" y="103.23708061510345" text-anchor="middle" dominant-baseline="alphabetic" font-size="6" font-family="&quot;Open Sans&quot;, sans-serif" fill="#6f757eff" transform="rotate(22.868044029123652,339.87981639850756,106.23708061510345)"><tspan>ACQUIRES</tspan></text><polyline points="223.5189796478547,-33.803166965953004 345.7472239099789,17.440212605089364" stroke="#959AA1" stroke-width="1" fill="none"/><polygon points="351.7417256952386,19.95336766328191 344.79488363929045,13.245805852183182 342.08840896123695,19.70142315938589" fill="#959AA1"/><text x="284.6331017789168" y="-11.18147718043182" text-anchor="middle" dominant-baseline="alphabetic" font-size="6" font-family="&quot;Open Sans&quot;, sans-serif" fill="#6f757eff" transform="rotate(22.745544034168702,284.6331017789168,-8.18147718043182)"><tspan>ACQUIRES</tspan></text><polyline points="159.02544855581561,105.35532983289602 344.2672139187059,41.31539678785493" stroke="#959AA1" stroke-width="1" fill="none"/><polygon points="350.41046574038825,39.191613122931095 340.7608489369461,38.82433183191979 343.04800057609486,45.44014148603917" fill="#959AA1"/><text x="251.64633123726077" y="70.33536331037547" text-anchor="middle" dominant-baseline="alphabetic" font-size="6" font-family="&quot;Open Sans&quot;, sans-serif" fill="#6f757eff" transform="rotate(-19.070780119368298,251.64633123726077,73.33536331037547)"><tspan>ACQUIRES</tspan></text><polyline points="151.7910824572914,17.77135160026522 342.86328434816994,28.447517056019336" stroke="#959AA1" stroke-width="1" fill="none"/><polygon points="349.35316148233045,28.810139150631414 340.5624358090532,24.813497793543657 340.1719197071633,31.80259624571649" fill="#959AA1"/><text x="247.32718340273067" y="20.109434328142278" text-anchor="middle" dominant-baseline="alphabetic" font-size="6" font-family="&quot;Open Sans&quot;, sans-serif" fill="#6f757eff" transform="rotate(3.1980781444524258,247.32718340273067,23.109434328142278)"><tspan>ACQUIRES</tspan></text><polyline points="231.50919064454874,48.34206217323977 342.8887286158917,34.4645041493698" stroke="#959AA1" stroke-width="1" fill="none"/><polygon points="349.33885422064805,33.6608377491349 339.9751676293205,31.30046205459134 340.8406545218811,38.24675116740587" fill="#959AA1"/><text x="287.1989596302202" y="38.403283161304785" text-anchor="middle" dominant-baseline="alphabetic" font-size="6" font-family="&quot;Open Sans&quot;, sans-serif" fill="#6f757eff" transform="rotate(-7.102281134050322,287.1989596302202,41.403283161304785)"><tspan>ACQUIRES</tspan></text><polyline points="309.6071240615705,4.133720285532401 345.427780401484,18.165237797492328" stroke="#959AA1" stroke-width="1" fill="none"/><polygon points="351.4800130215748,20.53599301731322 344.37655912750637,13.994514379050745 341.8234381215454,20.51230335453322" fill="#959AA1"/><text x="327.5174522315273" y="8.149479041512365" text-anchor="middle" dominant-baseline="alphabetic" font-size="6" font-family="&quot;Open Sans&quot;, sans-serif" fill="#6f757eff" transform="rotate(21.39106414065941,327.5174522315273,11.149479041512365)"><tspan>ACQUIRES</tspan></text><polyline points="317.7872803905146,70.8149242719326 348.1934862421751,49.6392470019261" stroke="#959AA1" stroke-width="1" fill="none"/><polygon points="353.5274339687522,45.924546253528916 344.141744405893,48.1958523600758 348.1421913657054,53.94010375792809" fill="#959AA1"/><text x="332.99038331634483" y="57.227085636929345" text-anchor="middle" dominant-baseline="alphabetic" font-size="6" font-family="&quot;Open Sans&quot;, sans-serif" fill="#6f757eff" transform="rotate(-34.85436263899038,332.99038331634483,60.227085636929345)"><tspan>ACQUIRES</tspan></text><polyline points="225.01893356131134,-48.81036233584085 331.76843666771003,-62.63733933138767" stroke="#959AA1" stroke-width="1" fill="none"/><polygon points="338.21458700711554,-63.47229190595806 328.83955822778535,-65.78720775469436 329.7387379234765,-58.845199696872996" fill="#959AA1"/><text x="278.3936851145107" y="-58.723850833614264" text-anchor="middle" dominant-baseline="alphabetic" font-size="6" font-family="&quot;Open Sans&quot;, sans-serif" fill="#6f757eff" transform="rotate(-7.380278012784873,278.3936851145107,-55.723850833614264)"><tspan>ACQUIRES</tspan></text><polyline points="154.2029282013157,97.1604030433816 338.08145287991107,-46.14475849245243" stroke="#959AA1" stroke-width="1" fill="none"/><polygon points="343.2083412067105,-50.14038311002201 333.9580825755277,-47.36861196935612 338.2610629329103,-41.8473476174183" fill="#959AA1"/><text x="246.1421905406134" y="22.507822275464587" text-anchor="middle" dominant-baseline="alphabetic" font-size="6" font-family="&quot;Open Sans&quot;, sans-serif" fill="#6f757eff" transform="rotate(-37.93095887673063,246.1421905406134,25.507822275464587)"><tspan>ACQUIRES</tspan></text><polyline points="149.88806309079297,6.799273262817687 333.10632653906487,-56.028366531272574" stroke="#959AA1" stroke-width="1" fill="none"/><polygon points="339.2548727452069,-58.13677340636489 329.60620506549907,-58.52819645954432 331.8767970848292,-51.90668516062213" fill="#959AA1"/><text x="241.49719481492892" y="-27.614546634227445" text-anchor="middle" dominant-baseline="alphabetic" font-size="6" font-family="&quot;Open Sans&quot;, sans-serif" fill="#6f757eff" transform="rotate(-18.927428479807496,241.49719481492892,-24.614546634227445)"><tspan>ACQUIRES</tspan></text><polyline points="225.65870962932186,34.97543245096648 337.50392290718963,-46.95837650203265" stroke="#959AA1" stroke-width="1" fill="none"/><polygon points="342.7474777540179,-50.799617521326326 333.4188104941746,-48.30442871982719 337.5555315918754,-42.65752350016604" fill="#959AA1"/><text x="281.58131626825576" y="-8.991472025533085" text-anchor="middle" dominant-baseline="alphabetic" font-size="6" font-family="&quot;Open Sans&quot;, sans-serif" fill="#6f757eff" transform="rotate(-36.2251734827485,281.58131626825576,-5.991472025533085)"><tspan>ACQUIRES</tspan></text><polyline points="305.08265087517077,-23.40704550019644 337.4624828853677,-47.01877876806462" stroke="#959AA1" stroke-width="1" fill="none"/><polygon points="342.71442070969954,-50.84855018282982 333.38032219113575,-48.373756283179766 337.5046914070367,-42.71782324159164" fill="#959AA1"/><text x="321.2725668802692" y="-38.212912134130534" text-anchor="middle" dominant-baseline="alphabetic" font-size="6" font-family="&quot;Open Sans&quot;, sans-serif" fill="#6f757eff" transform="rotate(-36.0999464560325,321.2725668802692,-35.212912134130534)"><tspan>ACQUIRES</tspan></text><polyline points="305.72109527755595,61.42344568700578 350.2680484348183,-35.904064377132556" stroke="#959AA1" stroke-width="1" fill="none"/><polygon points="352.9732179155633,-41.81439923062824 346.0451106364956,-35.08748838465074 352.4100866325679,-32.17422894384845" fill="#959AA1"/><text x="327.9945718561871" y="9.759690654936612" text-anchor="middle" dominant-baseline="alphabetic" font-size="6" font-family="&quot;Open Sans&quot;, sans-serif" fill="#6f757eff" transform="rotate(-65.40635632637711,327.9945718561871,12.759690654936612)"><tspan>ACQUIRES</tspan></text><polyline points="219.21252657187497,-62.01063210748561 246.29533755531273,-81.80061749061176" stroke="#959AA1" stroke-width="1" fill="none"/><polygon points="251.5434998139664,-85.63556115471465 242.2118439443905,-83.15157268215495 246.34178327496286,-77.49970563437404" fill="#959AA1"/><text x="232.75393206359385" y="-74.90562479904868" text-anchor="middle" dominant-baseline="alphabetic" font-size="6" font-family="&quot;Open Sans&quot;, sans-serif" fill="#6f757eff" transform="rotate(-36.15639316250737,232.75393206359385,-71.90562479904868)"><tspan>ACQUIRES</tspan></text><polyline points="147.00997014940165,90.97636406362874 254.72731128607415,-73.29211330503307" stroke="#959AA1" stroke-width="1" fill="none"/><polygon points="258.29163863969376,-78.72769703782932 250.42956337086866,-73.12075736744505 256.28326892926464,-69.28225098662396" fill="#959AA1"/><text x="200.8686407177379" y="5.842125379297833" text-anchor="middle" dominant-baseline="alphabetic" font-size="6" font-family="&quot;Open Sans&quot;, sans-serif" fill="#6f757eff" transform="rotate(-56.745558593704565,200.8686407177379,8.842125379297833)"><tspan>ACQUIRES</tspan></text><polyline points="145.0311926989708,-1.4734388602678283 246.9045422545183,-80.94169306968625" stroke="#959AA1" stroke-width="1" fill="none"/><polygon points="252.02963544396385,-84.93962000742519 242.78062267671825,-82.16369442641118 247.08608245582175,-76.64436329931596" fill="#959AA1"/><text x="195.96786747674457" y="-44.20756596497704" text-anchor="middle" dominant-baseline="alphabetic" font-size="6" font-family="&quot;Open Sans&quot;, sans-serif" fill="#6f757eff" transform="rotate(-37.956693067992305,195.96786747674457,-41.20756596497704)"><tspan>ACQUIRES</tspan></text><polyline points="214.12158057937825,26.1791474072228 258.96302665134357,-70.77236374634735" stroke="#959AA1" stroke-width="1" fill="none"/><polygon points="261.69164922604585,-76.6719076986224 254.73687891754076,-69.97256668954279 261.09023394306774,-67.03405007063265" fill="#959AA1"/><text x="236.5423036153609" y="-25.296608169562276" text-anchor="middle" dominant-baseline="alphabetic" font-size="6" font-family="&quot;Open Sans&quot;, sans-serif" fill="#6f757eff" transform="rotate(-65.1787906492196,236.5423036153609,-22.296608169562276)"><tspan>ACQUIRES</tspan></text><polyline points="278.72431487034146,-34.315838764506225 275.8478925510551,-67.29771296874539" stroke="#959AA1" stroke-width="1" fill="none"/><polygon points="275.28315676411336,-73.77313368796877 272.578333620297,-64.50307803761395 279.55186362561443,-65.1112550389358" fill="#959AA1"/><text x="277.2861037106983" y="-53.806775866625806" text-anchor="middle" dominant-baseline="alphabetic" font-size="6" font-family="&quot;Open Sans&quot;, sans-serif" fill="#6f757eff" transform="rotate(85.01571936715644,277.2861037106983,-50.806775866625806)"><tspan>ACQUIRES</tspan></text><polyline points="290.42011865237635,59.4885789813334 276.5747207275422,-67.34722742150183" stroke="#959AA1" stroke-width="1" fill="none"/><polygon points="275.86937065928544,-73.8088434176138 273.36667752511914,-64.4821866170128 280.3253409055475,-65.24179438282779" fill="#959AA1"/><text x="283.4974196899593" y="-6.929324220084215" text-anchor="middle" dominant-baseline="alphabetic" font-size="6" font-family="&quot;Open Sans&quot;, sans-serif" fill="#6f757eff" transform="rotate(83.77025832458247,283.4974196899593,-3.929324220084215)"><tspan>ACQUIRES</tspan></text><polyline points="207.23185429205168,-71.00820997386931 249.6227204159992,-166.5788791282765" stroke="#959AA1" stroke-width="1" fill="none"/><polygon points="252.25820753377974,-172.5206135259093 245.40967607966596,-165.71270511568417 251.80846696942436,-162.87448821961283" fill="#959AA1"/><text x="228.42728735402545" y="-121.7935445510729" text-anchor="middle" dominant-baseline="alphabetic" font-size="6" font-family="&quot;Open Sans&quot;, sans-serif" fill="#6f757eff" transform="rotate(-66.08007147572374,228.42728735402545,-118.7935445510729)"><tspan>ACQUIRES</tspan></text><polyline points="142.31756187851627,88.67623650214347 250.15128609852064,-166.33093553825904" stroke="#959AA1" stroke-width="1" fill="none"/><polygon points="252.68287220521358,-172.3176768709374 245.9539691860427,-165.39150446775585 252.40122908277326,-162.6651809682404" fill="#959AA1"/><text x="196.23442398851847" y="-41.82734951805779" text-anchor="middle" dominant-baseline="alphabetic" font-size="6" font-family="&quot;Open Sans&quot;, sans-serif" fill="#6f757eff" transform="rotate(-67.07817701920213,196.23442398851847,-38.82734951805779)"><tspan>ACQUIRES</tspan></text><polyline points="137.93102717009216,-7.5959925190632545 244.8199978125712,-169.39601488003325" stroke="#959AA1" stroke-width="1" fill="none"/><polygon points="248.40282900271575,-174.81941977575397 240.52169087251212,-169.2393067148339 246.36228076021138,-165.38087312544747" fill="#959AA1"/><text x="191.37551249133168" y="-91.49600369954825" text-anchor="middle" dominant-baseline="alphabetic" font-size="6" font-family="&quot;Open Sans&quot;, sans-serif" fill="#6f757eff" transform="rotate(-56.5502935008294,191.37551249133168,-88.49600369954825)"><tspan>ACQUIRES</tspan></text><polyline points="208.79398223032877,24.516938727264534 255.16648115613413,-164.49931055752666" stroke="#959AA1" stroke-width="1" fill="none"/><polygon points="256.7152368277769,-170.81210358989784 251.1716096496101,-162.9052585990377 257.97000214600985,-161.2373678757301" fill="#959AA1"/><text x="231.98023169323145" y="-72.99118591513106" text-anchor="middle" dominant-baseline="alphabetic" font-size="6" font-family="&quot;Open Sans&quot;, sans-serif" fill="#6f757eff" transform="rotate(-76.21553707348026,231.98023169323145,-69.99118591513106)"><tspan>ACQUIRES</tspan></text><polyline points="278.5096429238591,-34.28882282200067 266.2835103161931,-163.35120419353703" stroke="#959AA1" stroke-width="1" fill="none"/><polygon points="265.6705069929827,-169.8222340131046 263.03488015304526,-160.5322678581285 270.003681497195,-161.19242528312427" fill="#959AA1"/><text x="272.39657662002605" y="-101.82001350776885" text-anchor="middle" dominant-baseline="alphabetic" font-size="6" font-family="&quot;Open Sans&quot;, sans-serif" fill="#6f757eff" transform="rotate(84.58849596811268,272.39657662002605,-98.82001350776885)"><tspan>ACQUIRES</tspan></text><polyline points="290.4868400927828,59.4790378037215 266.6832873026769,-163.37946971708507" stroke="#959AA1" stroke-width="1" fill="none"/><polygon points="265.9929479341482,-169.84270664267117 263.4685979460262,-160.52188816265195 270.42900694281116,-161.26533055952896" fill="#959AA1"/><text x="278.5850636977299" y="-54.95021595668179" text-anchor="middle" dominant-baseline="alphabetic" font-size="6" font-family="&quot;Open Sans&quot;, sans-serif" fill="#6f757eff" transform="rotate(83.90334291138433,278.5850636977299,-51.95021595668179)"><tspan>ACQUIRES</tspan></text><polyline points="178.3340952307877,-66.8106373495747 117.34287023560803,-149.2368583678073" stroke="#959AA1" stroke-width="1" fill="none"/><polygon points="113.47656186038837,-154.46195736664993 116.01639707285418,-145.14534655082647 121.64342676391547,-149.30906326260148" fill="#959AA1"/><text x="147.83848273319788" y="-111.023747858691" text-anchor="middle" dominant-baseline="alphabetic" font-size="6" font-family="&quot;Open Sans&quot;, sans-serif" fill="#6f757eff" transform="rotate(53.50043575521559,147.83848273319788,-108.023747858691)"><tspan>ACQUIRES</tspan></text><polyline points="127.62930277166099,87.08110464731539 101.06340297786964,-143.36691246206775" stroke="#959AA1" stroke-width="1" fill="none"/><polygon points="100.3190170126079,-149.82414790261979 97.87273234267307,-140.4825371574837 104.82667820172911,-141.28418358161173" fill="#959AA1"/><text x="114.34635287476532" y="-31.14290390737618" text-anchor="middle" dominant-baseline="alphabetic" font-size="6" font-family="&quot;Open Sans&quot;, sans-serif" fill="#6f757eff" transform="rotate(83.42400690245782,114.34635287476532,-28.14290390737618)"><tspan>ACQUIRES</tspan></text><polyline points="118.14449348139456,-11.492566088748081 101.43761988728764,-143.40088569263813" stroke="#959AA1" stroke-width="1" fill="none"/><polygon points="100.6208859086477,-149.84936967014283 98.27948773733894,-140.48091971279172 105.22400894388247,-141.3604793820963" fill="#959AA1"/><text x="109.7910566843411" y="-80.4467258906931" text-anchor="middle" dominant-baseline="alphabetic" font-size="6" font-family="&quot;Open Sans&quot;, sans-serif" fill="#6f757eff" transform="rotate(82.78162622353936,109.7910566843411,-77.4467258906931)"><tspan>ACQUIRES</tspan></text><polyline points="189.92271894623653,26.944083119192886 111.19854793979512,-145.8609185221902" stroke="#959AA1" stroke-width="1" fill="none"/><polygon points="108.50382431500212,-151.7760233045235 109.04992368192063,-142.13487319255805 115.42003652443344,-145.03688325002744" fill="#959AA1"/><text x="150.56063344301583" y="-62.458417701498654" text-anchor="middle" dominant-baseline="alphabetic" font-size="6" font-family="&quot;Open Sans&quot;, sans-serif" fill="#6f757eff" transform="rotate(65.50757933748098,150.56063344301583,-59.458417701498654)"><tspan>ACQUIRES</tspan></text><polyline points="260.32934360649386,-24.5365174804311 122.06289542484697,-153.20717551870797" stroke="#959AA1" stroke-width="1" fill="none"/><polygon points="117.30455195194119,-157.63528655998223 121.50866004604767,-148.9418709404994 126.27739501357378,-154.06624083439792" fill="#959AA1"/><text x="191.19611951567043" y="-91.87184649956953" text-anchor="middle" dominant-baseline="alphabetic" font-size="6" font-family="&quot;Open Sans&quot;, sans-serif" fill="#6f757eff" transform="rotate(42.94123176224961,191.19611951567043,-88.87184649956953)"><tspan>ACQUIRES</tspan></text><polyline points="276.4923063052861,65.50382276584614 117.3614188834772,-149.2497543645428" stroke="#959AA1" stroke-width="1" fill="none"/><polygon points="113.49158934725622,-154.47224604578003 116.03770395366524,-145.1573493522557 121.66192576422839,-149.3248580835706" fill="#959AA1"/><text x="196.92686259438165" y="-44.872965799348336" text-anchor="middle" dominant-baseline="alphabetic" font-size="6" font-family="&quot;Open Sans&quot;, sans-serif" fill="#6f757eff" transform="rotate(53.46181485918305,196.92686259438165,-41.872965799348336)"><tspan>ACQUIRES</tspan></text><g class="node" data-id="4:a4df8752-c80b-4577-8ac2-413a661a3fa5:10"><circle cx="186.10674228759308" cy="-140.4383659557954" r="25" fill="#c8b63b"/><text x="186.10674228759308" y="-136.30613455083673" text-anchor="middle" dominant-baseline="auto" font-size="8.264462809917356" font-family="&quot;Open Sans&quot;, sans-serif" fill="#1a1b1d"><tspan>Flea</tspan></text></g><g class="node" data-id="4:a4df8752-c80b-4577-8ac2-413a661a3fa5:0"><circle cx="196.38764013543584" cy="-44.09347387400289" r="25" fill="#aee3c3"/><text x="196.38764013543584" y="-39.96124246904421" text-anchor="middle" dominant-baseline="auto" font-size="8.264462809917356" font-family="&quot;Open Sans&quot;, sans-serif" fill="#1a1b1d"><tspan>Jake</tspan></text></g><g class="node" data-id="4:a4df8752-c80b-4577-8ac2-413a661a3fa5:1"><circle cx="131.9438302229137" cy="115.775788002815" r="25" fill="#aee3c3"/><text x="131.9438302229137" y="119.90801940777368" text-anchor="middle" dominant-baseline="auto" font-size="8.264462809917356" font-family="&quot;Open Sans&quot;, sans-serif" fill="#1a1b1d"><tspan>Rachel</tspan></text></g><g class="node" data-id="4:a4df8752-c80b-4577-8ac2-413a661a3fa5:2"><circle cx="122.78045799801967" cy="17.151941814174474" r="25" fill="#ffbb38"/><text x="122.78045799801967" y="21.28417321913315" text-anchor="middle" dominant-baseline="auto" font-size="8.264462809917356" font-family="&quot;Open Sans&quot;, sans-serif" fill="#1a1b1d"><tspan>Tobias</tspan></text></g><g class="node" data-id="4:a4df8752-c80b-4577-8ac2-413a661a3fa5:3"><circle cx="202.8553481618258" cy="52.9199777442503" r="25" fill="#aee3c3"/><text x="202.8553481618258" y="57.052209149208984" text-anchor="middle" dominant-baseline="auto" font-size="8.264462809917356" font-family="&quot;Open Sans&quot;, sans-serif" fill="#1a1b1d"><tspan>Cassie</tspan></text></g><g class="node" data-id="4:a4df8752-c80b-4577-8ac2-413a661a3fa5:4"><circle cx="282.24012387657723" cy="-5.512382599808368" r="25" fill="#aee3c3"/><text x="282.24012387657723" y="-1.3801511948496898" text-anchor="middle" dominant-baseline="auto" font-size="8.264462809917356" font-family="&quot;Open Sans&quot;, sans-serif" fill="#1a1b1d"><tspan>Marco</tspan></text></g><g class="node" data-id="4:a4df8752-c80b-4577-8ac2-413a661a3fa5:5"><circle cx="294.5611598793854" cy="88.2088118765627" r="25" fill="#dfa996"/><text x="294.5611598793854" y="88.2088118765627" text-anchor="middle" dominant-baseline="auto" font-size="8.264462809917356" font-family="&quot;Open Sans&quot;, sans-serif" fill="#1a1b1d"><tspan>Aximili</tspan></text><text x="294.5611598793854" y="96.47327468648007" text-anchor="middle" dominant-baseline="auto" font-size="8.264462809917356" font-family="&quot;Open Sans&quot;, sans-serif" fill="#1a1b1d"><tspan>-Esgarr</tspan></text></g><g class="node" data-id="4:a4df8752-c80b-4577-8ac2-413a661a3fa5:13"><circle cx="36.590311492786405" cy="-18.714803867946305" r="25" fill="#c8b63b"/><text x="36.590311492786405" y="-18.714803867946305" text-anchor="middle" dominant-baseline="auto" font-size="8.264462809917356" font-family="&quot;Open Sans&quot;, sans-serif" fill="#1a1b1d"><tspan>Bottlen</tspan></text><text x="36.590311492786405" y="-10.450341058028949" text-anchor="middle" dominant-baseline="auto" font-size="8.264462809917356" font-family="&quot;Open Sans&quot;, sans-serif" fill="#1a1b1d"><tspan>ose</tspan></text></g><g class="node" data-id="4:a4df8752-c80b-4577-8ac2-413a661a3fa5:14"><circle cx="111.28146114134665" cy="-79.22474080337294" r="25" fill="#c8b63b"/><text x="111.28146114134665" y="-75.09250939841426" text-anchor="middle" dominant-baseline="auto" font-size="8.264462809917356" font-family="&quot;Open Sans&quot;, sans-serif" fill="#1a1b1d"><tspan>Seagull</tspan></text></g><g class="node" data-id="4:a4df8752-c80b-4577-8ac2-413a661a3fa5:17"><circle cx="21.95552670752296" cy="-117.21066349987471" r="25" fill="#c8b63b"/><text x="21.95552670752296" y="-117.21066349987471" text-anchor="middle" dominant-baseline="auto" font-size="8.264462809917356" font-family="&quot;Open Sans&quot;, sans-serif" fill="#1a1b1d"><tspan>America</tspan></text><text x="21.95552670752296" y="-108.94620068995735" text-anchor="middle" dominant-baseline="auto" font-size="8.264462809917356" font-family="&quot;Open Sans&quot;, sans-serif" fill="#1a1b1d"><tspan>n</tspan></text></g><g class="node" data-id="4:a4df8752-c80b-4577-8ac2-413a661a3fa5:18"><circle cx="-52.391594474310224" cy="-56.4680612718848" r="25" fill="#c8b63b"/><text x="-52.391594474310224" y="-56.4680612718848" text-anchor="middle" dominant-baseline="auto" font-size="8.264462809917356" font-family="&quot;Open Sans&quot;, sans-serif" fill="#1a1b1d"><tspan>Housefl</tspan></text><text x="-52.391594474310224" y="-48.203598461967445" text-anchor="middle" dominant-baseline="auto" font-size="8.264462809917356" font-family="&quot;Open Sans&quot;, sans-serif" fill="#1a1b1d"><tspan>y</tspan></text></g><g class="node" data-id="4:a4df8752-c80b-4577-8ac2-413a661a3fa5:22"><circle cx="47.400547120580846" cy="76.3711054366387" r="25" fill="#c8b63b"/><text x="47.400547120580846" y="76.3711054366387" text-anchor="middle" dominant-baseline="auto" font-size="8.264462809917356" font-family="&quot;Open Sans&quot;, sans-serif" fill="#1a1b1d"><tspan>Brown</tspan></text><text x="47.400547120580846" y="84.63556824655606" text-anchor="middle" dominant-baseline="auto" font-size="8.264462809917356" font-family="&quot;Open Sans&quot;, sans-serif" fill="#1a1b1d"><tspan>Bat</tspan></text></g><g class="node" data-id="4:a4df8752-c80b-4577-8ac2-413a661a3fa5:25"><circle cx="-43.12085503838427" cy="38.84623748821347" r="25" fill="#c8b63b"/><text x="-43.12085503838427" y="38.84623748821347" text-anchor="middle" dominant-baseline="auto" font-size="8.264462809917356" font-family="&quot;Open Sans&quot;, sans-serif" fill="#1a1b1d"><tspan>Racehor</tspan></text><text x="-43.12085503838427" y="47.11070029813082" text-anchor="middle" dominant-baseline="auto" font-size="8.264462809917356" font-family="&quot;Open Sans&quot;, sans-serif" fill="#1a1b1d"><tspan>se</tspan></text></g><g class="node" data-id="4:a4df8752-c80b-4577-8ac2-413a661a3fa5:27"><circle cx="-32.109938773336644" cy="135.32999289887954" r="25" fill="#c8b63b"/><text x="-32.109938773336644" y="135.32999289887954" text-anchor="middle" dominant-baseline="auto" font-size="8.264462809917356" font-family="&quot;Open Sans&quot;, sans-serif" fill="#1a1b1d"><tspan>Hammer</tspan></text><text x="-32.109938773336644" y="143.5944557087969" text-anchor="middle" dominant-baseline="auto" font-size="8.264462809917356" font-family="&quot;Open Sans&quot;, sans-serif" fill="#1a1b1d"><tspan>head</tspan></text></g><g class="node" data-id="4:a4df8752-c80b-4577-8ac2-413a661a3fa5:29"><circle cx="55.06203207848232" cy="174.65662673934204" r="25" fill="#c8b63b"/><text x="55.06203207848232" y="178.78885814430072" text-anchor="middle" dominant-baseline="auto" font-size="8.264462809917356" font-family="&quot;Open Sans&quot;, sans-serif" fill="#1a1b1d"><tspan>Mole</tspan></text></g><g class="node" data-id="4:a4df8752-c80b-4577-8ac2-413a661a3fa5:30"><circle cx="143.67717452438745" cy="213.4244041189885" r="25" fill="#c8b63b"/><text x="143.67717452438745" y="213.4244041189885" text-anchor="middle" dominant-baseline="auto" font-size="8.264462809917356" font-family="&quot;Open Sans&quot;, sans-serif" fill="#1a1b1d"><tspan>Mosquit</tspan></text><text x="143.67717452438745" y="221.68886692890584" text-anchor="middle" dominant-baseline="auto" font-size="8.264462809917356" font-family="&quot;Open Sans&quot;, sans-serif" fill="#1a1b1d"><tspan>o</tspan></text></g><g class="node" data-id="4:a4df8752-c80b-4577-8ac2-413a661a3fa5:33"><circle cx="220.58344265874533" cy="151.54894230205053" r="25" fill="#c8b63b"/><text x="220.58344265874533" y="151.54894230205053" text-anchor="middle" dominant-baseline="auto" font-size="8.264462809917356" font-family="&quot;Open Sans&quot;, sans-serif" fill="#1a1b1d"><tspan>Dragonf</tspan></text><text x="220.58344265874533" y="159.81340511196788" text-anchor="middle" dominant-baseline="auto" font-size="8.264462809917356" font-family="&quot;Open Sans&quot;, sans-serif" fill="#1a1b1d"><tspan>ly</tspan></text></g><g class="node" data-id="4:a4df8752-c80b-4577-8ac2-413a661a3fa5:34"><circle cx="235.6039688360218" cy="248.3261813962784" r="25" fill="#c8b63b"/><text x="235.6039688360218" y="252.45841280123707" text-anchor="middle" dominant-baseline="auto" font-size="8.264462809917356" font-family="&quot;Open Sans&quot;, sans-serif" fill="#1a1b1d"><tspan>Human</tspan></text></g><g class="node" data-id="4:a4df8752-c80b-4577-8ac2-413a661a3fa5:36"><circle cx="311.80709853465817" cy="188.70338044708708" r="25" fill="#c8b63b"/><text x="311.80709853465817" y="188.70338044708708" text-anchor="middle" dominant-baseline="auto" font-size="8.264462809917356" font-family="&quot;Open Sans&quot;, sans-serif" fill="#1a1b1d"><tspan>Baby Ri</tspan></text><text x="311.80709853465817" y="196.96784325700443" text-anchor="middle" dominant-baseline="auto" font-size="8.264462809917356" font-family="&quot;Open Sans&quot;, sans-serif" fill="#1a1b1d"><tspan>nged Se</tspan></text></g><g class="node" data-id="4:a4df8752-c80b-4577-8ac2-413a661a3fa5:37"><circle cx="388.56756300633776" cy="127.85689943322947" r="25" fill="#c8b63b"/><text x="388.56756300633776" y="127.85689943322947" text-anchor="middle" dominant-baseline="auto" font-size="8.264462809917356" font-family="&quot;Open Sans&quot;, sans-serif" fill="#1a1b1d"><tspan>Polar</tspan></text><text x="388.56756300633776" y="136.12136224314682" text-anchor="middle" dominant-baseline="auto" font-size="8.264462809917356" font-family="&quot;Open Sans&quot;, sans-serif" fill="#1a1b1d"><tspan>Bear</tspan></text></g><g class="node" data-id="4:a4df8752-c80b-4577-8ac2-413a661a3fa5:39"><circle cx="376.25532464044136" cy="31.314858179660135" r="25" fill="#c8b63b"/><text x="376.25532464044136" y="31.314858179660135" text-anchor="middle" dominant-baseline="auto" font-size="8.264462809917356" font-family="&quot;Open Sans&quot;, sans-serif" fill="#1a1b1d"><tspan>Giant</tspan></text><text x="376.25532464044136" y="39.57932098957749" text-anchor="middle" dominant-baseline="auto" font-size="8.264462809917356" font-family="&quot;Open Sans&quot;, sans-serif" fill="#1a1b1d"><tspan>Squid</tspan></text></g><g class="node" data-id="4:a4df8752-c80b-4577-8ac2-413a661a3fa5:40"><circle cx="365.119358043811" cy="-65.94884100964957" r="25" fill="#c8b63b"/><text x="365.119358043811" y="-65.94884100964957" text-anchor="middle" dominant-baseline="auto" font-size="8.264462809917356" font-family="&quot;Open Sans&quot;, sans-serif" fill="#1a1b1d"><tspan>Chimpa</tspan></text><text x="365.119358043811" y="-57.684378199732215" text-anchor="middle" dominant-baseline="auto" font-size="8.264462809917356" font-family="&quot;Open Sans&quot;, sans-serif" fill="#1a1b1d"><tspan>nzee</tspan></text></g><g class="node" data-id="4:a4df8752-c80b-4577-8ac2-413a661a3fa5:43"><circle cx="273.9335497597745" cy="-100.75791756581073" r="25" fill="#c8b63b"/><text x="273.9335497597745" y="-100.75791756581073" text-anchor="middle" dominant-baseline="auto" font-size="8.264462809917356" font-family="&quot;Open Sans&quot;, sans-serif" fill="#1a1b1d"><tspan>Hork-Ba</tspan></text><text x="273.9335497597745" y="-92.49345475589337" text-anchor="middle" dominant-baseline="auto" font-size="8.264462809917356" font-family="&quot;Open Sans&quot;, sans-serif" fill="#1a1b1d"><tspan>jir</tspan></text></g><g class="node" data-id="4:a4df8752-c80b-4577-8ac2-413a661a3fa5:46"><circle cx="264.11972854573474" cy="-196.79620454411008" r="25" fill="#c8b63b"/><text x="264.11972854573474" y="-192.6639731391514" text-anchor="middle" dominant-baseline="auto" font-size="8.264462809917356" font-family="&quot;Open Sans&quot;, sans-serif" fill="#1a1b1d"><tspan>Orca</tspan></text></g><g class="node" data-id="4:a4df8752-c80b-4577-8ac2-413a661a3fa5:47"><circle cx="98.22037307083633" cy="-176.76103141956852" r="25" fill="#c8b63b"/><text x="98.22037307083633" y="-176.76103141956852" text-anchor="middle" dominant-baseline="auto" font-size="8.264462809917356" font-family="&quot;Open Sans&quot;, sans-serif" fill="#1a1b1d"><tspan>North</tspan></text><text x="98.22037307083633" y="-168.49656860965118" text-anchor="middle" dominant-baseline="auto" font-size="8.264462809917356" font-family="&quot;Open Sans&quot;, sans-serif" fill="#1a1b1d"><tspan> Americ</tspan></text></g></g></svg>